# xmcd
#
# Track frame offsets: 
#        150
#        16829
#        28994
#        43945
#        55539
#        66954
#        83953
#        89959
#        101356
#        111824
#        125626
#        135237
#        151470
#        163372
#        176565
#
# Disc length: 2407 seconds
#
# Revision: 1
# Processed by: cddbd v1.5.2PL0 Copyright (c) Steve Scherf et al.
# Submitted via: ExactAudioCopyFreeDBPlugin 1.0
#
DISCID=ce09650f
DTITLE=John Doe and The Sadies - Country Club
DYEAR=2009
DGENRE=Country
TTITLE0=Stop the World and Let Me Off
TTITLE1=Husbands and Wives
TTITLE2=Til I Get it Right
TTITLE3=It Just Dawned on Mme
TTITLE4=A Fool Such as I
TTITLE5=Night Life
TTITLE6=The Sudbury Nickel
TTITLE7=Before I Wake
TTITLE8=I Still Miss Someone
TTITLE9=The Cold Hard Facts of Life
TTITLE10=Take These Chains From My Heart
TTITLE11=Help Me Mmake it Through the Night
TTITLE12=Are the Good Times Really Over for Good
TTITLE13=Detroit City
TTITLE14=Pink Mountain Rag
EXTD=
EXTT0=
EXTT1=
EXTT2=
EXTT3=
EXTT4=
EXTT5=
EXTT6=
EXTT7=
EXTT8=
EXTT9=
EXTT10=
EXTT11=
EXTT12=
EXTT13=
EXTT14=
PLAYORDER=
